<svg xmlns="http://www.w3.org/2000/svg" width="1017.915" height="1017.915" viewBox="0 0 269.323 269.323"><title>Negative Edge Logo</title><g style="display:inline"><g style="display:inline" transform="translate(-.805 -.805)"><circle cx="674" cy="656.4" r="210.8" style="display:inline;fill:#000;fill-opacity:1;stroke-width:7.55906;stroke-linecap:round;stroke-linejoin:round;paint-order:stroke fill markers" transform="translate(-295.093 -283.85)scale(.63881)"/></g><g style="display:inline" transform="translate(27.513 27.513)scale(.79096)"><path d="M514.174 119.481c-48.187.204-96.333 8.648-141.688 24.935-43.683 15.659-84.782 38.514-121.088 67.419-39.793 31.622-73.841 70.451-99.956 114.058-24.452 40.721-41.98 85.583-51.629 132.091a425.1 425.1 0 0 0-6.426 132.214c4.658 43.085 15.946 85.447 33.385 125.12 15.26 34.754 35.189 67.455 59.114 96.923 29.988 36.982 66.252 68.86 106.773 93.862 41.094 25.373 86.54 43.68 133.759 53.83 51.905 11.19 105.914 12.546 158.308 3.916 46.886-7.683 92.462-23.296 134.188-46.02a425 425 0 0 0 105.039-80.576c29.653-31.196 54.532-66.921 73.481-105.568 21.097-42.979 34.866-89.544 40.488-137.092 5.18-43.515 3.6-87.833-4.754-130.854a425.4 425.4 0 0 0-35.046-105.113c-22.86-47.05-54.502-89.81-92.825-125.414-36.634-34.077-79.343-61.599-125.512-80.877-52.272-21.876-108.944-33.13-165.611-32.854m1.731 6.95a418.04 418.04 0 0 1 418.041 418.041 418.04 418.04 0 0 1-418.04 418.041 418.04 418.04 0 0 1-418.042-418.04A418.04 418.04 0 0 1 515.905 126.43" style="display:inline;fill:#fff;stroke-width:7.55906;stroke-linecap:round;stroke-linejoin:round;paint-order:stroke fill markers" transform="translate(-67.292 -78.52)scale(.39302)"/><path d="M674 445.6a210.8 210.8 0 0 0-210.8 210.8A210.8 210.8 0 0 0 674 867.2a210.8 210.8 0 0 0 210.8-210.8A210.8 210.8 0 0 0 674 445.6m0 35.45A175.35 175.35 0 0 1 849.35 656.4 175.35 175.35 0 0 1 674 831.75 175.35 175.35 0 0 1 498.649 656.4a175.35 175.35 0 0 1 175.35-175.35" style="display:inline;fill:#ff7e07;fill-opacity:1;stroke-width:7.55906;stroke-linecap:round;stroke-linejoin:round;paint-order:stroke fill markers" transform="translate(-378.338 -364.921)scale(.76232)"/><path d="M515.905 126.43A418.04 418.04 0 0 0 97.863 544.472a418.04 418.04 0 0 0 418.042 418.042 418.04 418.04 0 0 0 418.042-418.042A418.04 418.04 0 0 0 515.905 126.43m-2.112 8.252c7.133-.074 14.304.114 21.477.441a410 410 0 0 1 18.74 1.315 409 409 0 0 1 39.37 5.622c3.217.613 6.472 1.282 9.725 1.993 1.975.42 4.063.907 5.955 1.335 8.772 2.063 17.48 4.383 26.073 7a409.7 409.7 0 0 1 111.518 53.415 414 414 0 0 1 20.018 14.54c16.04 12.418 31.204 26.041 45.16 40.623a410.5 410.5 0 0 1 38.469 46.599c13.857 19.57 26.013 40.346 36.235 62.039a410.1 410.1 0 0 1 35.083 117.039 409 409 0 0 1 3.546 36.56c.316 6.132.511 12.47.536 18.593.03 2.446-.004 5.007-.018 7.382a412.4 412.4 0 0 1-5.612 62.979 416 416 0 0 1-6.113 29.728c-9.754 39.851-25.564 78.295-46.657 113.428a411.246 411.246 0 0 1-35.242 49.891c-18.37 22.259-39.08 42.59-61.713 60.501a404 404 0 0 1-13.09 9.946 409.8 409.8 0 0 1-103.249 54.643 416 416 0 0 1-29.53 9.327 411 411 0 0 1-38.606 8.625 412.26 412.26 0 0 1-34.703 4.499c-2.079.188-4.285.347-6.288.502-6.189.422-12.386.721-18.587.885-2.067.05-4.26.095-6.25.117-3.015.022-6.145.013-9.09-.014a419 419 0 0 1-18.86-.667 409 409 0 0 1-36.702-3.792 412 412 0 0 1-63.788-14.814 411 411 0 0 1-29.34-10.593 409 409 0 0 1-59.67-30.001c-33.778-20.591-64.554-46.1-91.036-75.49a412 412 0 0 1-15.758-18.553 411 411 0 0 1-21.842-30.021 410.005 410.005 0 0 1-32.29-58.881c-2.78-6.207-5.411-12.577-7.897-18.964-2.495-6.465-4.93-13.216-7.089-19.81a402 402 0 0 1-4.268-13.755c-8.588-29.499-13.821-60.017-15.609-90.644-.35-5.986-.542-12.006-.652-18.04-.077-7.342-.024-14.792.297-22.202.088-2.279.212-4.759.337-7.007a413.424 413.424 0 0 1 4.449-41.102c.613-3.798 1.26-7.543 1.96-11.3.439-2.296.896-4.63 1.389-6.987.546-2.64 1.145-5.379 1.718-7.944a411 411 0 0 1 18.46-59.716 410.4 410.4 0 0 1 36.41-71.043 410.8 410.8 0 0 1 57.183-70.405c29.183-28.755 62.8-53.128 99.125-71.937a413 413 0 0 1 28.386-13.34 403 403 0 0 1 22.953-8.934 410 410 0 0 1 29.712-9.297 439 439 0 0 1 17.585-4.359 413 413 0 0 1 37.831-6.65c8.204-1.038 16.663-1.875 24.919-2.412 8.304-.556 16.659-.844 24.93-.893" style="display:inline;fill:#fff;stroke-width:7.55906;stroke-linecap:round;stroke-linejoin:round;paint-order:stroke fill markers" transform="translate(-23.858 -32.68)scale(.30883)"/><circle cx="261.108" cy="58.955" r="10.439" style="display:inline;fill:#000;stroke-width:1.26429;stroke-linecap:round;stroke-linejoin:round;paint-order:stroke fill markers"/><path d="M266.87 58.955a5.763 5.763 0 0 1-5.762 5.763 5.763 5.763 0 0 1-5.763-5.763 5.763 5.763 0 0 1 5.763-5.762 5.763 5.763 0 0 1 5.762 5.762m-5.762-9.115a9.116 9.116 0 0 0-9.116 9.115 9.116 9.116 0 0 0 9.116 9.116 9.116 9.116 0 0 0 9.115-9.116 9.116 9.116 0 0 0-9.115-9.115m0 1.352a7.764 7.764 0 0 1 7.763 7.763 7.764 7.764 0 0 1-7.763 7.765 7.764 7.764 0 0 1-7.764-7.765 7.764 7.764 0 0 1 7.764-7.763" style="display:inline;fill:#fff;stroke-width:.697957;stroke-linecap:round;stroke-linejoin:round;paint-order:stroke fill markers"/><circle cx="9.829" cy="58.955" r="10.439" style="display:inline;fill:#000;stroke-width:1.26429;stroke-linecap:round;stroke-linejoin:round;paint-order:stroke fill markers"/><path d="M15.592 58.955a5.763 5.763 0 0 1-5.763 5.763 5.763 5.763 0 0 1-5.762-5.763 5.763 5.763 0 0 1 5.762-5.762 5.763 5.763 0 0 1 5.763 5.762M9.83 49.84a9.116 9.116 0 0 0-9.116 9.115 9.116 9.116 0 0 0 9.116 9.116 9.116 9.116 0 0 0 9.115-9.116A9.116 9.116 0 0 0 9.83 49.84m0 1.352a7.764 7.764 0 0 1 7.763 7.763A7.764 7.764 0 0 1 9.83 66.72a7.764 7.764 0 0 1-7.765-7.765 7.764 7.764 0 0 1 7.765-7.763" style="display:inline;fill:#fff;stroke-width:.697957;stroke-linecap:round;stroke-linejoin:round;paint-order:stroke fill markers"/></g><g style="fill:#fff"><path d="m133.318-23.912-7.334.531.33 4.568c.347.183 1.075-.006 1.226.158l-2.04 8.688-3.287-8.38c.77.083 1.36-.66 1.138-1.392l-.247-3.433-8.01.58.334 4.635c.545.04 1.093.06 1.629-.072q3.23 8.21 6.457 16.424 2.585-.19 5.172-.375 2.008-8.584 4.02-17.166c.72.155 1.722-.247 1.567-1.12-.11-1.23-.185-2.463-.279-3.695zm2.866.726-.186 3.999c.583.078 1.168.12 1.756.107l-.568 12.098a2.94 2.94 0 0 0-1.77.246q-.104 2.195-.205 4.39l14.643.684q.182-3.814.359-7.627l-4.713-.219q-.07 1.455-.139 2.91l-3.158-.15.174-3.684q2.934.139 5.867.276l.219-4.713q-2.934-.14-5.867-.28l.174-3.681 3.156.148-.135 2.909 4.717.218.353-7.625-14.646-.683zm-23.243 1.131q-4.118.707-8.238 1.409l.8 4.656 1.977-.34 2.041 11.926q-.99.168-1.98.34.4 2.325.8 4.65 4.454-.764 8.907-1.523-.4-2.328-.795-4.657l-1.982.34-2.041-11.926q.99-.169 1.98-.34l-.8-4.65zm-10.218 1.707q-7.54 1.983-15.077 3.967.97 3.69 1.944 7.379l4.465-1.172-.74-2.816c.65-.272 1.198-.37 1.172.518L97.36-1.55q-1.213.32-2.427.643.599 2.282 1.203 4.562 4.855-1.275 9.709-2.554-.6-2.281-1.198-4.563l-2.427.637-3.08-11.697c.65-.272 1.2-.372 1.173.517l.536 2.041 4.47-1.172q-.969-3.693-1.943-7.385zm-19.594 5.635L74.97-11.59l1.724 4.502c.784-.731.642.25.7.86l.865 11.396c-.463.11-1.005.284-1.182.777q-1.816-3.505-3.63-7.011-3.635 1.882-7.27 3.761 1.086 2.096 2.17 4.194l3.076-1.592c.26.608.73 1.196.864 1.816-.156.53-.196 1.194-.856 1.317L68.926 9.73c-.41-.105-.875-.199-.936-.698L63.299-.025c.092-.427.147-.886.665-.964l2.595-1.343c.541.189 1.252.216 1.384.902Q68.478-.397 69.01.637l4.193-2.174-2.326-4.486-4.65-1.623q-3.439 1.78-6.875 3.564c-.457 1.576-.907 3.154-1.36 4.73l6.615 12.77 4.65 1.623c2.292-1.189 4.585-2.374 6.876-3.564.408-1.408.81-2.817 1.215-4.225l1.105 2.887 7.502-2.873-1.637-4.274c-.434.045-.877.095-1.26.324.02-.558-.387-1.385.471-1.412L86.965.588c.184.4 1.122.967.307 1.111-.754.378-.489 1.289-.178 1.873l1.088 2.84 7.5-2.871-1.657-4.33c-.524.108-1.044.238-1.507.516l-7.739-10.059c.693-.572.27-1.457-.053-2.1l-.964-2.523zm106.33.752c-.499 1.233-1.006 2.468-1.51 3.703.515.27 1.1.526 1.615.69l-4.585 11.21a3 3 0 0 0-1.752-.367l-1.666 4.073q6.786 2.772 13.57 5.55 1.442-3.533 2.89-7.064-2.185-.891-4.369-1.787-.55 1.35-1.103 2.697l-2.928-1.2L191.018.13l5.439 2.226q.891-2.186 1.787-4.37-2.72-1.112-5.44-2.223l1.4-3.416 2.927 1.199q-.551 1.347-1.104 2.695 2.186.891 4.37 1.787 1.441-3.533 2.89-7.064-6.786-2.774-13.57-5.553zm16.873 7.096q-.97 1.749-1.943 3.498c.485.33.99.627 1.523.873l-5.889 10.59a2.9 2.9 0 0 0-1.695-.57l-2.133 3.84q5.52 3.067 11.04 6.138 2.346-.742 4.695-1.479l6.99-12.572-1.217-4.773-11.04-6.139zM83.959-3.311c-.451.02-1.472.94-1.394.123l-.169-2.152zM52.682-.328Q46.877 3.569 41.068 7.46q1.306 1.943 2.61 3.889c.514-.285 1.01-.599 1.472-.961l6.75 10.06a2.94 2.94 0 0 0-1.28 1.248q1.227 1.824 2.448 3.653 6.087-4.088 12.178-8.168-2.13-3.168-4.254-6.34a1705 1705 0 0 1-3.922 2.63l1.625 2.42-2.627 1.762-2.056-3.066q2.44-1.637 4.88-3.272-1.317-1.959-2.63-3.921l-4.88 3.275-2.056-3.065 2.63-1.765 1.62 2.424q1.959-1.318 3.922-2.631-2.129-3.168-4.252-6.34Zm160.777 2.22c.136.397.32.843-.064 1.166l-4.958 8.915c-.408.158-.82.367-1.172-.023l-2.78-1.548q2.867-5.155 5.736-10.31zm12.748 2.497q-2.276.433-4.55.867-4.209 5.83-8.419 11.66.323 2.44.649 4.88 3.14 2.266 6.277 4.534l4.84-.922a5044 5044 0 0 1 5.15-7.13q-3.32-2.394-6.636-4.794-1.38 1.916-2.766 3.827 1.407 1.013 2.812 2.029c-.426.506-.74 1.19-1.235 1.59-.542.1-1.154.364-1.562-.17l-2.287-1.65c-.093-.411-.218-.874.2-1.155l5.968-8.268c.424-.113.86-.266 1.164.162l2.372 1.712c.068.57.367 1.212-.19 1.639l-1.357 1.886q1.912 1.38 3.822 2.766 1.48-2.054 2.96-4.104-.322-2.44-.648-4.88-3.139-2.265-6.277-4.534zM37.529 10.04l-5.902 5.19q1.544 1.753 3.086 3.51c.478-.343.93-.72 1.342-1.14l4.242 4.827-11.184-4.992q-2.797 2.459-5.593 4.92 1.544 1.753 3.085 3.51c.479-.343.93-.72 1.342-1.14l7.996 9.1a2.94 2.94 0 0 0-1.105 1.403q1.452 1.65 2.902 3.302 3.206-2.816 6.41-5.633l-3.084-3.515c-.478.343-.929.718-1.341 1.138l-4.235-4.816q5.588 2.49 11.174 4.982l4.275-3.755q-5.55-6.318-11.103-12.635a2.94 2.94 0 0 0 1.105-1.402q-1.451-1.652-2.904-3.303zm200.127 3.42q-1.35 1.475-2.691 2.957c.395.435.817.841 1.28 1.205l-8.153 8.955c-.405-.458-.921-.797-1.522-.933q-1.479 1.619-2.953 3.244 5.419 4.936 10.842 9.867 2.57-2.82 5.135-5.645-1.742-1.59-3.489-3.175-.98 1.073-1.96 2.15-1.17-1.062-2.336-2.125l2.48-2.727q2.171 1.976 4.344 3.95 1.59-1.742 3.176-3.489c-1.445-1.32-2.894-2.635-4.34-3.953l2.478-2.726 2.338 2.125-1.96 2.152q1.748 1.587 3.493 3.176 2.57-2.82 5.135-5.643-5.418-4.935-10.842-9.865zM-12.12 85.809q-2.068 1.061-4.137 2.12-1.083 3.72-2.168 7.436 1.243 2.126 2.487 4.252 4.052 1.177 8.105 2.358-4.155-.77-8.309-1.543c-1.37.9-2.753 1.783-4.128 2.677q-.751 4.055-1.506 8.108 1.453 1.987 2.904 3.976l10.191 1.889-.277 3.2 2.902.251c.037.704-.055 1.253-.883.93l-11.255-.973.216-2.502-4.705-.406-.865 10.004 4.705.408q.109-1.25.215-2.5l12.053 1.041c.037.704-.056 1.253-.883.929l-2.104-.183-.398 4.604 1.977.172-11.135.242a2.9 2.9 0 0 0-.367-1.748q-2.197.049-4.393.1.096 4.266.191 8.533 2.337-.055 4.674-.106c.045-.586.047-1.172-.01-1.758l3.706-.08.107 5.02-3.686.078a2.9 2.9 0 0 0-.367-1.746l-4.392.092c.064 2.844.124 5.688.19 8.533l4.671-.098c.043-.587.05-1.174-.008-1.76l12.11-.265c-.085.784.255 1.455.224 2.228.159.57.228 1.056-.55.934l-11.31 1.531a2.9 2.9 0 0 0-.562-1.697q-2.176.294-4.353.592.987 7.264 1.972 14.527 3.783-.514 7.565-1.027l-.639-4.678q-1.44.196-2.883.39l-.423-3.132 3.656-.494q.393 2.91.789 5.822l4.676-.637q-.396-2.91-.79-5.82l3.655-.494.424 3.134-2.885.391.637 4.678q1.398-.191 2.797-.381c.06.437.205.854.326 1.277l-11.74 2.985c-.085-.606-.325-1.176-.752-1.622q-2.127.544-4.256 1.08l2.103 8.274q2.269-.579 4.537-1.152a11 11 0 0 0-.408-1.711l6.215-1.582q-4.758 3.843-9.518 7.69.703 2.755 1.4 5.513 8.151-2.073 16.302-4.145c.165.88.6 1.657.912 2.49-.225.358-1.087.447-1.546.706l-9.72 3.738a2.9 2.9 0 0 0-.935-1.52q-2.052.788-4.102 1.578c1.496 3.883 2.986 7.767 4.482 11.649q2.278.938 4.555 1.875 3.036-1.169 6.072-2.336.41-.877.82-1.752c.684.435 1.556.475 2.246.035l3.065-1.18c.072.45.268.86.54 1.221l-11.762 6.117-1.614 4.649 3.69 7.098 4.736 1.35q5.87-3.057 11.742-6.11c.373.77.878 1.474 1.381 2.172l-10.045 6.771a2.87 2.87 0 0 0-1.252-1.273Q.961 218.074-.86 219.3l4.63 6.87q1.9-1.279 3.8-2.56c-.15-.489-.373-.953-.739-1.318l2.549-1.72c.21.506 1.063.996.482 1.523-.558.872-1.062 1.87-1.652 2.664-.898-.074-1.486.807-2.236 1.166l-1.627 1.097 4.154 6.163 3.848-2.594c-.234-.558-.569-1.053-.957-1.512l2.382-3.951 3.375.56L22.621 222c.356-1.602.717-3.203 1.072-4.805-2.226-3.347-4.534-6.646-6.712-10.022l-3.22-6.189-4.15 2.157c.222.543.478 1.071.785 1.572L.271 209.98c-.369-.11-.858-.085-.916-.573l-1.513-2.909c.058-.537.35-.892.872-1.028l9.493-4.937a2.95 2.95 0 0 0 1.098 1.408l3.9-2.025-3.82-7.35q-1.383.72-2.766 1.436l1.912-3.992c-1.463-3.811-2.968-7.703-4.406-11.463q-.853-3.355-1.705-6.711-2.267.579-4.535 1.152.136.872.408 1.711l-6.234 1.584q4.768-3.845 9.535-7.691L0 162.322c.107-.466-.14-1.202-.167-1.771L-1.9 147.785c-.142-.604-.051-1.482-.104-2.191q-.059-2.69-.119-5.38l-4.674.099c-.044.586-.046 1.173.01 1.76l-3.705.08-.108-5.018 3.686-.08c-.055.61.057 1.217.367 1.75l4.389-.1c-.023-3.248-.312-6.507.11-9.743l1.093-12.626c-.388-.107-1.852.056-.895-.385.506-.429 1.414-.589 1.36-1.392.466-2.509.928-5.018 1.396-7.526q-1.315-1.8-2.629-3.601l3.973-2.04q1.083-3.718 2.168-7.435c-.827-1.417-1.659-2.833-2.486-4.25q-6.907-2.01-13.813-4.023zm299.81 1.943-3.882 1.117q.306 1.08.617 2.16c-1.095.317-2.211.832-3.367.503l-9.434-1.2c-.013-.739-.537-1.703-1.406-1.406q-1.799.515-3.596 1.033 1.105 3.863 2.215 7.725l4.389-1.262c.208-.336-.44-1.285.157-1.087l3.645.466-3.068 2.51c-.114-.73-.942-1.071-1.574-.736q-1.653.474-3.307.95c.864 3.056 1.856 6.087 2.313 9.24.594 3.184 1.205 6.369 1.789 9.551-.15.937.196 1.875.21 2.819l.62 5.648c.437.147.097 1.175.22 1.679l.08 5.737q2.34-.034 4.68-.064c.04-.587.052-1.174 0-1.76l6.43-.09c-3.688 1.753-7.374 3.509-11.063 5.26-.013 2.34.158 4.69.023 7.025l-.792 7.266c1.55.166 3.101.337 4.652.504.113-.576.196-1.156.217-1.742l11.346 1.234c.303.313.657.613.434 1.087l-.344 3.155c-.31.283-.649.617-1.096.395l-10.834-1.18c.13-.598.103-1.215-.137-1.783-1.455-.16-2.91-.316-4.365-.477-.287 2.608-.569 5.215-.856 7.823.207.411-.245.907-.229 1.372q-.581 2.362-1.165 4.723l9.877 6.32q-5.84.506-11.68 1.008c-.797 2.916-1.224 5.956-2.524 8.71l-1.577 3.826q4.414 3.858 8.826 7.718-5.85-.37-11.7-.742l-2.837 6.887 2.152.887q-1.752.429-3.504.861-2.039 3.581-4.076 7.164l1.252 4.1-4.25.605a4137 4137 0 0 1-4.328 6.121q.486 2.415.969 4.828 5.87 4.15 11.74 8.305l4.875-.693q2.161-3.063 4.328-6.121-.488-2.415-.969-4.829-2.067-1.456-4.129-2.92l-2.722 3.848c.76.624 1.687 1.082 2.384 1.758.081.52.434 1.117-.091 1.525-.558.707-1.006 1.586-1.632 2.187-.386.118-.79.154-1.057-.204l-8.325-5.889c-.11-.424-.277-.86.15-1.169.56-.708 1.01-1.6 1.64-2.194.54-.1 1.141-.334 1.547.185l1.9 1.344c.845-1.194 1.688-2.392 2.534-3.586l8.125 4.62q2.392-.587 4.784-1.17l4.078-7.17q-.721-2.356-1.44-4.713l-11.344-6.448c.183-.337.284-.71.426-1.064l11.2 4.613a2.96 2.96 0 0 0-.37 1.748q2.033.84 4.067 1.676 1.624-3.946 3.25-7.893l-3.496-1.439q.938.054 1.875.103l1.576-3.824-1.404-1.244 3.498 1.44q1.624-3.947 3.25-7.893-2.164-.891-4.329-1.781a11 11 0 0 0-.691 1.615q-5.6-2.31-11.2-4.617a8.7 8.7 0 0 0 .774-2.42l11.764 2.898a2.9 2.9 0 0 0-.102 1.784q2.133.524 4.264 1.05l2.041-8.287-3.666-.902 1.865-.176.989-4.02-1.575-1.021 3.672.904 2.041-8.287-4.539-1.119a10 10 0 0 0-.447 1.7l-11.764-2.897c.277-.695.16-1.423.244-2.144.302-.274 1.172.088 1.69.054l11.492 1.25q1.962-1.485 3.922-2.975l.863-7.949-3.187-3.75-13.159-1.433a8.9 8.9 0 0 0 .12-2.438l12.113-.168c-.063.61.048 1.217.351 1.752l4.393-.062-.121-8.534q-2.337.034-4.674.065a10 10 0 0 0-.006 1.76l-6.416.09q5.524-2.633 11.049-5.26l-.08-5.69-16.817.234c.156-.867-.4-1.603-.382-2.457-.39-.867.57-.648 1.124-.757l10.835-1.184.218 1.996 4.692-.516-.987-8.982q-2.345.258-4.691.51l.219 2.002-12.026 1.314c-.249-.692.916-.389 1.32-.62.52-.168 1.354-.121 1.681-.42q-.417-2.22-.835-4.44l-2.861.539c-.223-.668-.285-1.226.6-1.136l11.105-2.087.465 2.467 4.637-.87-1.854-9.868-4.637.87.463 2.468-11.89 2.234c-.225-.668-.287-1.224.598-1.134l2.077-.39q-.426-2.269-.853-4.539c-.672.147.678-.644.863-.895 1.657-1.323 3.264-2.742 4.952-4.005l2.046-.586.623 2.172 4.535-1.305c-.873-3.058-1.752-6.114-2.628-9.172zM-11.443 91.01c3.375 1.056 6.802 1.992 10.197 3.002.247.362.542.72.24 1.151l-.814 2.8c-.513.266-1.021.757-1.612.38l-2.232-.65-1.293 4.444c-.916.097-.219-.797-.176-1.29l1.93-6.628-4.53-1.319-.968 3.327c-.619-.233-1.369-.299-1.91-.63-.282-.476-.728-.966-.364-1.529l.79-2.713c.242-.116.468-.323.742-.345m-3.745 14.677c3.472.713 6.98 1.302 10.465 1.967.282.337.607.663.352 1.121l-.623 3.368c-.333.252-.697.576-1.126.309l-10.028-1.856c-.282-.337-.607-.663-.352-1.121l.623-3.368c.226-.142.426-.35.69-.42m302.891 63.633c-.158.488-.283 1.009-.144 1.518l-3.846-2.5zm-1.855 7.537c-.225.294-.015 1.148-.448 1.048l-3.808-.938 4.351-.408zM3.209 189.744c-.194.43-.281 1.058-.885 1.037-.477.158-.962.618-1.453.254-.434-.066-.636-.369-.691-.784l-.871-2.267 2.808-1.08zm-7.088 3.11c-.26.46-.295 1.186-.955 1.236-.632.239-1.265.497-1.896.724-.447-.19-1.056-.238-1.075-.848l-1.088-2.83q1.898-.727 3.793-1.456zm284.99-1.256c-.23.458-.426.955-.369 1.478l-3.428-3.04q1.9.78 3.797 1.562m-2.818 6.894c-.23.422-.392.874-.55 1.326l-3.81-1.568zm-16.088 7.028c3.043 1.817 6.168 3.52 9.242 5.292.16.408.358.822-.035 1.17l-1.693 2.977c-.4.141-.834.302-1.158-.075l-8.87-5.044c-.16-.407-.357-.82.035-1.167l1.694-2.98c.26-.06.513-.198.785-.173M18.45 218.129c-.093.466-.045 1.082-.62 1.225-.587.39-1.17.8-1.759 1.177-.48-.08-1.072-.004-1.236-.583l-1.414-2.098 3.326-2.246zm4.248 4.41-10.818 9.068q-.286 2.444-.568 4.887 2.487 2.97 4.974 5.94l4.916.293 6.742-5.653-5.256-6.273-3.617 3.033 2.225 2.654c-.537.387-1.01.974-1.586 1.241-.549-.039-1.207.072-1.469-.547l-1.816-2.17c.013-.422.01-.89.475-1.062l7.82-6.554c.437 0 .895-.05 1.083.441l1.878 2.24c-.064.57.063 1.269-.58 1.547l-1.784 1.495 3.032 3.617 3.877-3.25q.285-2.445.568-4.888-2.487-2.97-4.975-5.94l-4.914-.293zm205.92 17.031-10.828 8.852c.1.405-.892.628-1.215.962q-1.988 1.247-3.976 2.493 1.349 5.704 2.699 11.408l-9.094-7.398q-3.154 1.978-6.31 3.953 1.244 1.98 2.486 3.963a11 11 0 0 0 1.504-.908l6.435 10.261c-.474.198-.769.65-1.26.673-.44-.047-.905.653-1.22.345l-8.262-9.365c.65-.615.175-1.468-.19-2.088l-1.14-2.46c-2.847 1.32-5.697 2.635-8.545 3.954l2.028 4.377c.73-.785.653.207.752.81l1.628 11.313c-.634.456-.802.047-.931-.59l-2.21-6.412-7.736 2.664q.768 2.23 1.536 4.46l3.275-1.126c.169.639.548 1.288.59 1.92-.238.446-.301 1.136-.942 1.149l-2.771.954c-.393-.157-.828-.33-.821-.825l-3.324-9.659c.153-.394.296-.846.8-.842l2.77-.955c.506.274 1.202.404 1.235 1.103l.756 2.194 4.46-1.537-1.646-4.783q-2.18-1.14-4.363-2.28-3.66 1.263-7.32 2.52l-2.035 4.484 4.683 13.602q2.18 1.141 4.364 2.281l7.32-2.52 1.601-3.53q.619 1.335 1.235 2.673 3.648-1.685 7.297-3.373l-1.924-4.152c-.428.076-.867.149-1.23.404-.08-.62-.41-1.376.465-1.477l3.247-1.501c.213.387 1.184.885.38 1.083-.765.46-.358 1.386-.011 1.973q.617 1.334 1.233 2.672l7.17-3.314c.408.122 1.01-.583 1.493-.776q2.904-1.822 5.81-3.642l-2.004-3.202 1.46 1.172 3.504-2.197-.421-1.84 2.011 3.211 7.233-4.531q-1.242-1.98-2.48-3.961c-.527.263-1.035.559-1.509.908l-6.433-10.262c.616-.245.993-.788 1.425-1.241.3-.12.581-.692.841-.582l7.603 9.3c-.516.33-.927.792-1.154 1.365q1.39 1.701 2.783 3.399 5.676-4.635 11.347-9.276-2.412-2.957-4.828-5.912-1.827 1.494-3.652 2.99.92 1.129 1.84 2.254l-2.447 2-2.332-2.855q2.275-1.859 4.548-3.717-1.493-1.827-2.99-3.652-2.274 1.855-4.549 3.713l-2.332-2.854 2.448-2 1.841 2.256q1.827-1.494 3.653-2.99-2.413-2.958-4.828-5.912zm-177.039 7.567q-1.14 1.645-2.275 3.295c.453.37.923.721 1.43 1.017l-6.89 9.965a2.94 2.94 0 0 0-1.63-.732l-2.498 3.615q3.615 2.496 7.226 4.998 1.34-1.944 2.686-3.883-.827-.571-1.652-1.144l2.095-3.032 4.832 3.34q1.34-1.943 2.686-3.883l-4.832-3.34 2.098-3.035 2.601 1.797-1.656 2.397q1.94 1.341 3.883 2.683l1.754-2.537c.85.225.702.715.23 1.29l-5.58 9.591-1.736-1.01q-1.185 2.044-2.373 4.084 3.909 2.27 7.816 4.543 1.183-2.043 2.373-4.084-.87-.502-1.738-1.008l6.082-10.459 1.576.916-5.768 12.047a1406 1406 0 0 1 1.508 4.688q3.495 1.67 6.986 3.344c1.531-.591 3.064-1.178 4.594-1.77 1.27-2.643 2.533-5.29 3.801-7.934l-7.38-3.535-2.04 4.258q1.562.748 3.125 1.494c-.33.575-.517 1.306-.932 1.786-.514.199-1.066.565-1.56.11l-2.55-1.222c-.177-.387-.361-.817-.008-1.165l4.404-9.2c.46-.294.908-.318 1.347.038l2.457 1.177c.172.546.578 1.128.11 1.646l-1.004 2.098 4.258 2.039 1.66-3.469c.288.26 1.244.106.944.631l-3.876 11.156a2.97 2.97 0 0 0-1.767-.271q-.72 2.078-1.442 4.156l8.063 2.8 1.537-4.42c-.536-.239-1.083-.45-1.65-.603l1.212-3.496 4.742 1.647-1.21 3.484a2.96 2.96 0 0 0-1.768-.271l-1.441 4.154 8.062 2.803q.77-2.212 1.537-4.424a11 11 0 0 0-1.65-.6l3.629-10.447-.424 1.846q2.253.513 4.504 1.031.323-1.419.65-2.838c.702.062 1.236.23.8 1.004l-2.528 11.012-2.448-.56q-.525 2.3-1.054 4.6 4.894 1.122 9.789 2.247.525-2.303 1.054-4.604-1.224-.278-2.447-.56l2.705-11.791c.702.062 1.238.228.802 1.004q-.236 1.03-.474 2.06 2.253.513 4.504 1.031.346-1.517.694-3.035c.74-.064.068.975.155 1.42l-1.587 10.598-1.986-.299a2083 2083 0 0 1-.7 4.67q4.47.667 8.94 1.338.348-2.334.701-4.668-.996-.148-1.99-.299l1.79-11.965c.462.192 1.436-.036 1.555.434.539.126 1.171.143 1.752.14l-.642 12.094c-.589-.08-1.393-.09-1.777.336q-.112 2.143-.225 4.285 4.26.229 8.521.451.127-2.334.25-4.67a11 11 0 0 0-1.754-.12l.34-6.401 4.508 11.37 5.682.3c.3-5.598.594-11.195.892-16.793.337.11.894-.066 1.077.108q.398 6.525.794 13.052 1.8 1.681 3.594 3.365c2.576-.16 5.153-.314 7.729-.472q1.58-1.887 3.16-3.774-.27-4.392-.537-8.785c-2.721.17-5.443.333-8.164.5.091 1.57.187 3.14.28 4.711q1.731-.108 3.462-.215c-.008.662.182 1.39.054 2.012-.35.366-.599 1.006-1.217.855l-2.915.178c-.333-.258-.729-.537-.58-1.02l-.617-10.181c.262-.348.492-.755 1-.612l2.912-.177c.42.39 1.058.707.902 1.388q.068 1.16.139 2.32c1.572-.09 3.144-.186 4.716-.28a2273 2273 0 0 1-.31-5.053q-1.799-1.683-3.596-3.367c-2.575.165-5.15.315-7.726.474q-1.14 1.36-2.28 2.721.064-1.185.125-2.37-4.26-.228-8.523-.452-.126 2.335-.248 4.672c.58.083 1.165.132 1.752.12l-.34 6.413-4.506-11.383-6.582-.348c-.118-.463-1.144-.254-1.631-.444q-3.407-.51-6.812-1.02c-.53.17-1.084-.275-1.64-.272-4.234-1.002-8.502-1.878-12.707-2.985l-5.827-2.025-1.535 4.422c.537.236 1.082.45 1.65.6l-1.215 3.498-4.74-1.647 1.211-3.484c.55.266 1.158.369 1.764.271q.723-2.077 1.445-4.154l-8.064-2.803q-.405 1.16-.807 2.323l-1.102-3.43q-3.495-1.669-6.988-3.342-2.097.809-4.195 1.615.845-1.455 1.691-2.908a5531 5531 0 0 1-7.42-4.312c-.514.02-.824-.59-1.295-.766l-9.943-6.875zM222.1 265.77c-.453.242-.91.527-1.162.992l-1.026-4.479zm-6.301 3.976c-.434.207-.826.484-1.22.756l-2.19-3.49zm-16.572 2.121c-.449.05-1.405 1.038-1.383.218l-.313-2.136z" style="font-size:25.1021px;line-height:1.25;font-family:Graduate;-inkscape-font-specification:&quot;Graduate, Normal&quot;;letter-spacing:0;word-spacing:22.8608px;display:inline;fill:#000;stroke-width:1.00501" transform="matrix(.78128 0 0 .77972 28.343 28.31)"/><path d="m236.337 15.67 8.73 7.927-3.271 3.587-1.467-1.332 1.936-2.123-4.292-3.897-4.255 4.667 4.291 3.897-1.335 1.464-4.291-3.897-4.255 4.668 4.291 3.897 1.936-2.124 1.467 1.333-3.27 3.587-8.73-7.927 1.335-1.464 1.283 1.165 9.846-10.798-1.284-1.166zm-12.59 4.1-2.774-1.999 1.16-1.605 4.383 3.159-3.992 5.517-3.687.7-5.267-3.796-.494-3.713L220.77 7.4l3.687-.7 5.267 3.795.494 3.714-1.83 2.528-1.608-1.16 1.234-1.705-.323-2.216-3.678-2.651-1.815.31-6.851 9.469.256 1.802 3.678 2.651 2.23-.377zM205.704-4.528l9.231 5.124.928 3.63-6.388 11.462-3.58 1.127-9.23-5.123.964-1.73 1.517.841 7.11-12.759-1.516-.842zm-4.492 16.308 4.854 2.695 1.765-.521 5.689-10.208-.467-1.76-4.875-2.705zm-12.034-23.41 10.924 4.46-1.84 4.489-1.836-.75 1.089-2.657-5.37-2.192-2.394 5.84 5.37 2.193-.751 1.832L189-.608l-2.394 5.84 5.37 2.192 1.089-2.656 1.836.75-1.84 4.488-10.924-4.46.75-1.832 1.607.656 5.54-13.513-1.607-.656zm-52.303-9.489 11.79.55-.227 4.845-1.982-.092.135-2.868-5.796-.27-.295 6.303 5.795.27-.092 1.978-5.796-.27-.296 6.303 5.796.27.135-2.867 1.981.093-.227 4.844-11.79-.55.093-1.977 1.734.08.683-14.583-1.734-.081zm-20.566 3.067-.144-1.975 5.243-.38.144 1.975-1.707.124 5.49 13.968 3.438-14.614-1.707.123-.143-1.974 5.243-.38.143 1.975-1.261.091-3.968 16.91-3.14.228-6.37-16.163Zm-7.487 16.142 1.955-.334-2.469-14.39-1.955.334-.335-1.952 6.16-1.052.334 1.951-1.955.334 2.469 14.39 1.955-.333.334 1.951L109.157.04zm-4.858 3.052-7.002 1.837-.505-1.914 2.398-.63-3.72-14.12-3.549.932.731 2.776-1.822.478-1.236-4.69 12.95-3.398 1.235 4.69-1.822.479-.732-2.777-3.549.932 3.72 14.12 2.398-.63zM76.83-9.649l6.182-2.363.71 1.849-1.065.407L91.965 2.32l1.158-.442.71 1.848-4.91 1.877-.71-1.849 1.622-.62-2.431-3.151-5.812 2.221.3 3.966 1.621-.62.71 1.85-4.91 1.876-.709-1.85 1.158-.442-1.157-15.192-1.065.408zm3.922 1.018.685 8.774 4.7-1.796zm-8.58 13.056-3.038 1.57-.913-1.757 4.8-2.481 3.136 6.042-1.035 3.6-5.769 2.983-3.544-1.234-6.044-11.645 1.035-3.601L66.57-5.08l3.544 1.233 1.437 2.769-1.761.91-.97-1.867-2.128-.711-4.03 2.082-.54 1.757 5.383 10.371 1.727.584 4.03-2.083.667-2.156zM43.475 8.727l9.801-6.562 2.708 4.028-1.648 1.103-1.602-2.384-4.818 3.226 3.522 5.24 4.818-3.226 1.105 1.644-4.818 3.226 3.522 5.24 4.819-3.226-1.603-2.383 1.648-1.103 2.707 4.028-9.801 6.561-1.105-1.644 1.441-.965-8.15-12.124-1.441.965zm-3.32 24.243 1.304-1.143 1.31 1.487-4.32 3.79-1.31-1.487 1.303-1.144-9.657-10.966-1.304 1.144-1.31-1.487 3.874-3.398 15.865 7.07-9.117-10.353-1.304 1.143-1.31-1.487 4.322-3.79 1.309 1.487-1.304 1.144 10.968 12.453-2.57 2.254-15.85-7.05zm244.79 56.013 1.86 6.47L284.9 96l-.616-2.14-3.67 1.05-9.107 7.447.342 1.189-1.906.546-1.45-5.043 1.907-.546.506 1.76 7.04-5.748-9.023-1.15.5 1.737-1.907.546-1.45-5.043 1.907-.546.349 1.213 11.591 1.47 3.742-1.071-.615-2.14zm3.655 13.983 1.337 7.101-1.95.366-.457-2.432-14.378 2.695.678 3.6 2.826-.53.348 1.848-4.776.896-2.472-13.133 4.776-.896.348 1.848-2.827.53.678 3.6 14.377-2.696-.457-2.432zm.806 18.758-.216-1.968-14.542 1.589.215 1.968-1.971.215-.68-6.199 1.972-.215.215 1.968 14.543-1.589-.216-1.968 1.972-.215.68 6.199zm.622 15.634-.024-1.732 1.983-.028.08 5.74-1.983.029-.024-1.733-14.628.205.025 1.732-1.984.027-.072-5.146 15.692-7.446-13.81.193.025 1.732-1.984.028-.08-5.74 1.983-.028.024 1.732 16.612-.232.047 3.414-15.667 7.446zm-17.26 11.155.597-5.46 1.972.214-.161 1.476 13.803 1.5 2.432 2.853-.73 6.691-2.99 2.264-13.804-1.5-.161 1.476-1.972-.215.596-5.461 1.972.214-.188 1.722 13.089 1.423 1.443-1.112.518-4.748-1.167-1.422-13.088-1.422-.188 1.722zm-5.745 29.46 1.21-4.902 14.506-1.25-12.265-7.832 1.21-4.902 1.926.474-.415 1.681 14.204 3.492.415-1.682 1.926.474-1.375 5.574-1.926-.473.415-1.682-12.929-3.178 11.82 7.67-.522 2.115-14.038 1.315 12.929 3.178.415-1.681 1.926.473-1.376 5.574-1.926-.473.415-1.682-14.204-3.492-.415 1.682zm-7.806 19.144 1.927-4.667 14.532.918-10.96-9.566 1.926-4.668 1.834.755-.66 1.601 13.525 5.563.661-1.602 1.834.754-2.192 5.308-1.834-.754.662-1.601-12.311-5.063 10.544 9.34-.831 2.014-14.078-.784 12.311 5.063.661-1.602 1.834.754-2.191 5.308-1.834-.754.661-1.601-13.526-5.563-.66 1.602zm10.508 18.849-3.646.891-11.424-6.482-1.096-3.583 3.456-6.066 3.645-.892 11.424 6.483 1.097 3.582zm-1.376-1.891 2.488-4.367-.505-1.767-10.174-5.773-1.767.449-2.488 4.367.505 1.767 10.174 5.773zm-7.694 5.298 1.146-1.616 2.55 1.8.737 3.674-3.608 5.09-3.716.53-10.728-7.575-.737-3.673 3.608-5.091 3.716-.529 2.55 1.8-1.145 1.617-1.72-1.215-2.218.344-2.478 3.495.328 1.808 9.554 6.745 1.803-.272 2.478-3.495-.4-2.222zm-42.593 26.717 9.138-7.455 3.075 3.755-1.535 1.253-1.82-2.223-4.493 3.665 4.002 4.886 4.492-3.665 1.255 1.533-4.492 3.665 4.002 4.885 4.492-3.665-1.82-2.222 1.535-1.253 3.076 3.755-9.138 7.455-1.255-1.533 1.343-1.096-9.258-11.304-1.344 1.096zm-17.718 11.49 4.286-2.681 11.293 9.173-3.352-14.142 4.285-2.681 1.054 1.677-1.47.92 7.77 12.37 1.47-.92 1.054 1.678-4.874 3.049-1.053-1.677 1.47-.92-7.072-11.26 3.144 13.718-1.849 1.156-11.001-8.8 7.072 11.258 1.471-.92 1.054 1.677-4.874 3.05-1.054-1.677 1.47-.92-7.77-12.37-1.47.92zm-10.135 4.54 6.01-2.773.832 1.797-1.035.478 10.098 11.426 1.126-.52.832 1.798-4.772 2.2-.832-1.796 1.576-.727-2.638-2.982-5.649 2.606.567 3.937 1.575-.727.832 1.797-4.771 2.2-.832-1.796 1.125-.52-2.176-15.08-1.036.478zm3.982.753 1.274 8.708 4.569-2.108zm-6.569 12.174-3.235 1.111-.646-1.871 5.11-1.757 2.22 6.435-1.55 3.411-6.142 2.111-3.326-1.736-4.278-12.4 1.55-3.412 6.142-2.11 3.326 1.735 1.017 2.948-1.875.645-.686-1.99-2.002-1.012-4.29 1.474-.791 1.659 3.81 11.043 1.623.83 4.29-1.475.976-2.036zm-39.165 8.86-3.416.207-.12-1.976 5.395-.328.414 6.793-2.408 2.873-6.484.394-2.74-2.56-.798-13.092 2.408-2.873 6.484-.394 2.74 2.56.19 3.113-1.98.12-.128-2.1-1.657-1.51-4.53.275-1.207 1.387.712 11.659 1.342 1.232 4.529-.275 1.486-1.702zm-25.2 5.652 1.733.091-.105 1.977-5.744-.303.105-1.977 1.733.091.774-14.58-1.734-.09.105-1.978 5.15.273 6.395 16.123.73-13.764-1.733-.092.105-1.977 5.745.304-.105 1.977-1.734-.092-.878 16.556-3.417-.18-6.396-16.099zm-13.686-1.725 1.962.293 2.163-14.44-1.961-.292.293-1.958 6.18.923-.294 1.957-1.961-.292-2.164 14.439 1.962.293-.294 1.958-6.18-.923zm-5.513.992-7.057-1.616.444-1.93 2.417.554 3.272-14.23-3.577-.82-.643 2.798-1.837-.42 1.087-4.727 13.05 2.988-1.087 4.728-1.836-.421.643-2.798-3.577-.819-3.272 14.23 2.417.553zm-21.165-25.594 5.434 1.884-.651 1.87-1.64-.569-2.075 5.96 7.214 2.502 2.075-5.96-1.64-.569.652-1.87 5.434 1.885-.651 1.87-1.64-.569-4.801 13.791 1.64.569-.652 1.87-5.434-1.885.651-1.87 1.64.569 2.075-5.96-7.214-2.502-2.075 5.96 1.64.569-.652 1.87-5.433-1.884.65-1.87 1.64.568 4.802-13.79-1.64-.57zm-8.038 8.354-3.087-1.475.857-1.785 4.875 2.329-2.944 6.138-3.503 1.344-5.86-2.8-1.148-3.566 5.674-11.83 3.503-1.344 5.86 2.8 1.148 3.566-1.349 2.812-1.789-.854.91-1.898-.713-2.124-4.093-1.955-1.73.628-5.053 10.535.573 1.728 4.093 1.955 2.127-.767zm-19.635-4.034 1.715.995 7.353-12.621-1.714-.995.997-1.712 5.401 3.135-.997 1.711-1.715-.995-7.353 12.621 1.715.996-.997 1.71-5.402-3.134zm-2.504-21.607 9.708 6.699-2.764 3.99-1.631-1.127 1.635-2.36-4.772-3.294-3.596 5.19 4.773 3.294-1.128 1.628-4.773-3.293-3.596 5.19 1.632 1.126-1.128 1.629-4.936-3.406 1.128-1.628 1.428.985 8.32-12.01-1.428-.984zm-28.747-11.643-2.197-2.617 1.52-1.272 3.472 4.135-5.226 4.371-3.747-.224-4.173-4.969.434-3.72 10.072-8.425 3.747.224 4.173 4.969-.434 3.72-2.395 2.003-1.274-1.517 1.615-1.351.232-2.228-2.914-3.47-1.836-.144-8.97 7.502-.194 1.81 2.914 3.47 2.255.181zm-6.493-27.123 5.545 8.207-.82 3.655-4.523 3.044-3.703-.612-3.245 5.378.721 1.066-1.645 1.107-2.606-3.857 1.645-1.107.54.8 3.246-5.377-1.955-2.893-4.728 3.182.831 1.231-1.644 1.107-3.078-4.555 1.645-1.106.97 1.436 12.13-8.163-.971-1.436zm.477 4.514-5.51 3.707 2.746 4.063 2.017.373 3.083-2.075.423-1.985zm-3.882-10.755 2.54 4.874-1.76.913-.686-1.317-12.319 6.394-3.61-1.027-3.112-5.971 1.23-3.54 12.32-6.394-.687-1.317 1.76-.913 2.54 4.873-1.76.914-.801-1.537-11.681 6.063-.583 1.725 2.209 4.237 1.76.536 11.681-6.063-.8-1.536zm-9.614-21.916 3.56 9.239-1.62 3.379-4.166 1.598-1.8-.74-1.123 2.392-4.999 1.919-3.471-1.425-3.738-9.701 1.851-.71.623 1.616 13.655-5.24-.623-1.617zm-7.676 7.24-6.249 2.399 1.94 5.035 1.882.816 3.379-1.297.943-2.033zm7.128-2.735-5.277 2.025 1.762 4.574 1.882.815 2.545-.977.859-1.84zm-19.176-13.842.427 1.679-1.922.488-1.418-5.564 1.923-.488.427 1.679 14.178-3.598-.427-1.679 1.922-.488 1.271 4.989-13.523 10.887 13.385-3.396-.428-1.68 1.922-.487 1.418 5.564-1.923.488-.427-1.679-16.1 4.085-.844-3.31 13.5-10.88zm13.293-21.486L-.39 159.87l-4.815.652-.267-1.962 2.85-.386-.78-5.738-6.265.848.78 5.738-1.966.266-.78-5.738-6.265.848.78 5.738 2.85-.386.266 1.962-4.815.651-1.586-11.672 1.966-.266.233 1.717 14.496-1.962-.233-1.716zm-.602-17.502.127 5.74-1.983.043-.039-1.732-6.32.14.168 7.62 6.32-.14-.038-1.732 1.984-.043.126 5.74-1.983.043-.038-1.732-14.626.322.039 1.732-1.983.043-.127-5.74 1.983-.043.038 1.732 6.321-.14-.168-7.619-6.321.14.038 1.73-1.983.045-.127-5.74 1.983-.044.039 1.732 14.625-.322-.038-1.732zm-18.185-5.133.623-7.198 1.977.17-.214 2.465L-3.8 122.26l.316-3.649-2.866-.247.163-1.874 4.841.418-1.153 13.313-4.842-.418.163-1.873 2.865.247.316-3.649-14.574-1.257-.214 2.465zm2.997-22.104 3.151-2.035 12.922 2.39 2.211 3.027-1.274 6.861-3.152 2.035-12.92-2.39-2.213-3.027zm1.92 1.336-.917 4.94 1.057 1.504 11.507 2.129 1.523-1.002.917-4.94-1.057-1.504-11.507-2.128zm7.233-7.275.957-3.278 1.905.554-1.512 5.179-6.547-1.904-1.897-3.232 1.817-6.224 3.34-1.71 12.617 3.669 1.897 3.232-1.817 6.224-3.34 1.71-3-.872.555-1.901 2.024.588L.372 98.51l1.27-4.347L.74 92.56l-11.236-3.267-1.615.844-1.27 4.348 1.104 1.97z" style="font-size:25.1021px;line-height:1.25;font-family:Graduate;-inkscape-font-specification:&quot;Graduate, Normal&quot;;letter-spacing:0;word-spacing:22.8608px;display:inline;fill:#fff;stroke-width:.991728" transform="translate(27.513 27.513)scale(.79096)"/><path d="M90.816 206.759v7.457h3.556v26.579h-3.556v7.457h27.574v-13.35h-7.458v5.893h-8.494v-9.561h11.887v-7.457h-11.887v-9.561h8.494v5.893h7.458v-13.35zm.727.727h26.12v11.896h-6.004v-5.893h-9.948v11.015h11.887v6.003h-11.887v11.015h9.948v-5.893h6.004v11.896h-26.12v-6.003h3.556v-28.033h-3.556v-5.76z" style="font-size:192px;line-height:1.25;font-family:Graduate;-inkscape-font-specification:&quot;Graduate, Normal&quot;;display:inline;fill:#fff;fill-opacity:1;stroke-width:.264583" transform="translate(-47.256 -358.177)scale(2.16628)"/><path d="M49.566 206.759v7.457h3.556v26.579h-3.556v7.457h15.179v-7.457h-3.557v-18.788l12.049 26.245h9.796v-34.036h3.556v-7.457H71.41v7.457h3.556v18.83l-12.048-26.287zm.727.727h12.158l13.242 28.89v-22.887h-3.556v-6.003h13.724v6.003h-3.555v34.036h-8.603q-6.62-14.423-13.242-28.844v22.84h3.557v6.004H50.293v-6.003h3.556v-28.033h-3.556v-5.76z" style="font-size:192px;line-height:1.25;font-family:Graduate;-inkscape-font-specification:&quot;Graduate, Normal&quot;;display:inline;fill:#fff;stroke-width:.264583" transform="translate(-47.256 -358.177)scale(2.16628)"/><path d="M59.492 242.491h3.556v4.064H51.263v-4.064h3.556V212.52h-3.556v-4.064h10.566l14.834 32.36v-28.296h-3.556v-4.064h11.785v4.064h-3.556v34.036h-7.01l-14.834-32.309z" style="font-size:192px;line-height:1.25;font-family:Graduate;-inkscape-font-specification:&quot;Graduate, Normal&quot;;fill:#fff;stroke-width:.264583" transform="translate(-47.256 -358.177)scale(2.16628)"/><path d="M92.512 208.455h24.18v9.957h-4.063v-5.893h-11.887v12.954h11.887v4.064h-11.887v12.954h11.887v-5.893h4.064v9.957h-24.18v-4.064h3.555V212.52h-3.556z" style="font-size:192px;line-height:1.25;font-family:Graduate;-inkscape-font-specification:&quot;Graduate, Normal&quot;;fill:#ff7e07;fill-opacity:1;stroke-width:.264583" transform="translate(-47.256 -358.177)scale(2.16628)"/><path d="M103.102 255.863q.38-.12.787-.12.406 0 .783.12.38.116.707.335.327.218.596.542.273.324.463.724.19.397.295.891.108.491.108 1.03 0 .54-.108 1.034-.105.491-.295.892-.19.397-.463.72-.27.324-.596.543t-.707.335q-.377.12-.783.12t-.787-.12q-.377-.116-.704-.335t-.599-.542q-.27-.324-.46-.721-.19-.4-.298-.892-.105-.494-.105-1.033 0-.54.105-1.03.108-.495.298-.892.19-.4.46-.724.273-.324.6-.542t.703-.335m.787.789q-.196 0-.352.085-.154.085-.281.284-.128.196-.213.508-.085.313-.13.778-.046.466-.046 1.079t.045 1.079q.046.465.13.778.086.312.214.51.127.196.28.282.157.085.353.085.247 0 .428-.142.185-.145.318-.46.137-.318.205-.849.07-.534.07-1.283 0-.75-.07-1.28-.068-.534-.205-.85-.133-.317-.318-.46-.181-.144-.428-.144m-6.351-.795h1.363v6.132h1.135v.909h-4.088v-.909h1.136v-4.315h-1.136v-.908h.227q.185 0 .318-.017.134-.02.273-.074.142-.057.261-.156.12-.103.247-.264.128-.162.264-.398m-6.229.006q.38-.12.787-.12.406 0 .783.12.38.116.707.335t.596.542q.273.324.463.724.19.398.295.892.108.49.108 1.03t-.108 1.034q-.105.49-.295.891-.19.397-.463.721-.27.324-.596.542t-.707.335q-.377.12-.783.12t-.787-.12q-.377-.116-.704-.335-.326-.218-.599-.542-.27-.324-.46-.721-.19-.4-.298-.891-.105-.494-.105-1.034t.105-1.03q.108-.494.298-.892.19-.4.46-.724.273-.323.6-.542t.703-.335m.787.79q-.196 0-.352.084-.154.086-.281.284-.128.196-.213.509-.085.312-.13.777-.046.466-.046 1.08 0 .612.045 1.078.046.466.13.778.086.312.214.51.127.197.28.282.157.085.353.085.247 0 .428-.142.185-.145.318-.46.137-.318.205-.849.07-.533.07-1.283t-.07-1.28q-.068-.534-.205-.849-.133-.318-.318-.46-.181-.145-.428-.145m-8.509 6.245q0-.236.046-.466.048-.23.128-.431.08-.202.201-.406.125-.207.253-.378.13-.173.304-.355.173-.184.326-.329.156-.145.352-.31.199-.167.352-.289t.35-.272l.073-.057q.46-.358.684-.804.225-.445.225-.9 0-.599-.321-.922-.318-.327-.929-.327-.266 0-.547.128-.279.125-.466.335.335.043.56.3.226.256.226.6 0 .378-.267.644-.264.264-.641.264-.264 0-.483-.136-.218-.139-.332-.369-.17-.32-.17-.687 0-.298.113-.588.114-.29.338-.539.224-.253.531-.446t.718-.303.875-.111q.576 0 1.042.116.468.114.777.31.31.193.517.46.207.264.298.553.091.287.091.605 0 .31-.068.585-.065.272-.176.48-.108.207-.273.4-.164.193-.335.332-.167.139-.38.287t-.395.258q-.181.108-.397.247-.213.136-.36.25-.151.113-.358.255-.205.142-.324.227-.116.083-.264.222-.145.139-.264.304.324-.1.642-.1h1.476q.12 0 .213-.09.093-.094.142-.24.05-.144.073-.291.026-.148.026-.287v-.454h1.022v2.725zm-4.488-.208q-.264-.266-.264-.644t.264-.642q.267-.266.644-.266.378 0 .642.266.267.264.267.642t-.267.644q-.264.264-.642.264-.377 0-.644-.264m-5.99-6.833h6.586v2.271h-1.022v-.454q0-.14-.025-.287-.023-.147-.074-.292-.049-.145-.142-.236-.094-.093-.213-.093h-.909v5.223h.909v.909h-3.634v-.909h.908v-5.223h-.908q-.12 0-.213.093-.094.091-.145.236-.048.145-.073.292-.023.148-.023.287v.454h-1.022zm-3.682 1.59q0 .27.125.485.124.213.335.358.21.145.482.267.273.122.574.233.3.108.601.227.301.116.574.28.272.163.483.367.21.202.335.508.124.304.124.682 0 .462-.204.863t-.562.687q-.355.284-.863.445t-1.096.162q-.227 0-.48-.031-.25-.028-.53-.1-.279-.07-.537-.173t-.497-.258q-.236-.159-.412-.352t-.28-.454q-.103-.264-.103-.562 0-.378.264-.642.267-.267.645-.267.377 0 .641.267.267.264.267.642 0 .244-.12.451-.116.205-.317.327.426.244 1.118.244.616 0 .932-.19.318-.19.318-.605 0-.27-.125-.483-.125-.216-.335-.36-.21-.145-.483-.267t-.573-.23q-.301-.11-.602-.227-.301-.12-.574-.281-.272-.165-.482-.367-.21-.204-.335-.508-.125-.306-.125-.684 0-.465.184-.863.188-.4.523-.684.337-.287.829-.449.49-.162 1.076-.162.227 0 .47.032.248.028.515.1.27.07.516.172.247.102.472.261.227.157.391.35.165.193.262.454.099.261.099.562 0 .378-.267.644-.264.264-.642.264-.377 0-.644-.264-.264-.266-.264-.644 0-.253.128-.463.127-.213.338-.332-.378-.227-1.034-.227-.599 0-.869.187-.266.185-.266.608m-8.395-1.59h6.132v2.271h-1.022v-.454q0-.14-.026-.287-.022-.147-.073-.292-.049-.145-.142-.236-.094-.093-.213-.093h-1.93v2.498h1.021v-1.022h.909v2.952h-.909v-1.022h-1.022v1.817h2.044q.12 0 .213-.09.094-.094.142-.24.051-.144.074-.292.025-.147.025-.286v-.454h1.023v2.27h-6.246v-.908h.908v-5.223h-.908z" style="font-size:11.6283px;line-height:1.25;font-family:&quot;Orelega One&quot;;-inkscape-font-specification:&quot;Orelega One, Normal&quot;;text-align:center;letter-spacing:-.462708px;word-spacing:0;text-anchor:middle;stroke-width:.121128" transform="translate(-47.256 -358.177)scale(2.16628)"/></g><path d="M99.998 68.865q-.18.001-.36.008c-.842.055-1.654.174-2.458.43.55.732 1.421 1.32 2.374 1.197 1.105-.08 2.115-.711 2.945-1.363a10.7 10.7 0 0 0-2.501-.272m6.496 2.208v.079c-.004 1.26.153 2.661 1.07 3.61.572.547 1.394.715 2.16.72a10.25 10.25 0 0 0-3.23-4.409zm-14.541 3.228q-.292.001-.584.01c-.132.014-.394-.063-.383.158-1.466 2.813-1.505 6.269-.115 9.125 1.284 2.715 3.837 4.79 6.735 5.504 3.216.841 6.81-.027 9.293-2.236a10.3 10.3 0 0 0 2.49-3.287c-2.406-3.094-5.382-5.82-8.966-7.472-2.644-1.229-5.551-1.814-8.47-1.802m.044 1.644a10.2 10.2 0 0 0 1.013 4.61c1.283 2.715 3.837 4.79 6.734 5.504 2.016.527 4.18.383 6.126-.342a8.762 8.762 0 0 1-3.236 1.79c-.3.095-.724.19-1.08.246-2.815.515-5.817-.538-7.773-2.606-2.314-2.377-3.016-6.133-1.784-9.202m5.428 14.482v8.156c.157.353.62.39.94.527 1.365.375 2.882.338 4.186-.243.212-.09.349-.287.287-.521-.012-2.64-.006-5.28-.007-7.92-1.271.31-2.595.396-3.896.26v7.283h-.954v-7.423a11 11 0 0 1-.556-.12zm6.747 2.071v6.122c.044.824-.732 1.367-1.421 1.623-1.646.603-3.505.59-5.16.03-.66-.237-1.405-.696-1.487-1.457-.054-.834.003-1.673-.02-2.51v-3.804c-2.829.33-5.627.94-8.191 2.233-1.313.695-2.657 1.605-3.257 3.022-.356.89-.147 1.927.43 2.676.921 1.287 2.37 2.066 3.8 2.708 2.854 1.215 5.977 1.722 9.041 1.932 2.796.169 5.608.025 8.34-.455 2.53-.459 5.1-1.188 7.279-2.615 1.036-.718 2.09-1.683 2.26-3.002.136-1.198-.638-2.283-1.516-3.016-1.648-1.362-3.695-2.136-5.739-2.684-1.43-.376-2.89-.64-4.36-.803m-19.266 9.412.004.132c.001.614.231 1.204.636 1.663 1.076 1.356 2.708 2.098 4.28 2.718 3.114 1.155 6.451 1.57 9.74 1.647 3.445.047 6.922-.344 10.218-1.407 1.58-.55 3.16-1.244 4.412-2.378.668-.603 1.204-1.442 1.165-2.373-1.024 1.25-2.496 2.02-3.95 2.66-2.879 1.198-6 1.699-9.096 1.902-3.75.212-7.553-.097-11.178-1.107-1.8-.524-3.584-1.239-5.087-2.354-.42-.324-.81-.69-1.144-1.103m2.014 1.213a.4.4 0 0 0-.11.028l-.04.007c-.283.37.293-.036.15-.035z" style="display:inline;fill:#fff;fill-opacity:1;stroke:none;stroke-width:.421994;stroke-linecap:round;stroke-linejoin:round;stroke-dasharray:none;paint-order:stroke fill markers" transform="translate(34.592 -22.7)"/><path d="M93.735 59.875a1.92 1.92 0 0 0-1.921 1.92 1.92 1.92 0 0 0 1.92 1.921 1.92 1.92 0 0 0 1.92-1.92 1.92 1.92 0 0 0-1.92-1.921m13 2.505a2.397 2.397 0 0 0-2.397 2.397 2.397 2.397 0 0 0 2.398 2.398 2.397 2.397 0 0 0 2.397-2.398 2.397 2.397 0 0 0-2.397-2.397m-13.262 2.873c-.034.01-.065.1-.092.285l-.828 3.105-1.148 4.32c4.78-.11 9.589 1.43 13.376 4.356 1.855 1.395 3.503 3.053 4.958 4.857l5.323-6.368c-2.16.656-4.434 1.216-6.705.91-1.41-.259-2.628-1.345-3.024-2.729-.665-1.833-.42-3.875-.149-5.725-1.36 1.457-2.941 2.82-4.872 3.43-1.345.366-2.927.077-3.886-.987-1.417-1.4-2.132-3.312-2.811-5.142-.051-.208-.1-.325-.142-.312m24.021 6.597a1.92 1.92 0 0 0-1.92 1.92 1.92 1.92 0 0 0 1.92 1.922 1.92 1.92 0 0 0 1.92-1.921 1.92 1.92 0 0 0-1.92-1.92" style="display:inline;fill:#ff7e07;fill-opacity:1;stroke:none;stroke-width:.151728px;stroke-linecap:butt;stroke-linejoin:miter;stroke-opacity:1" transform="translate(34.592 -22.7)"/><path d="M93.205 60.518a.726.726 0 0 0-.726.726.726.726 0 0 0 .726.726.726.726 0 0 0 .726-.726.726.726 0 0 0-.726-.726m13.091 2.427a.726.726 0 0 0-.726.726.726.726 0 0 0 .726.726.726.726 0 0 0 .727-.726.726.726 0 0 0-.727-.726M94.467 67.71l-.752 5.333c1.871.163 3.721.571 5.485 1.215l.343-2.429c-1.143.096-2.337-.256-3.117-1.122-.864-.854-1.466-1.898-1.959-2.997m8.954 2.224c-.74.606-1.542 1.133-2.42 1.505l-.474 3.357q1.06.467 2.06 1.048zm13.858 2.282a.726.726 0 0 0-.727.726.726.726 0 0 0 .727.726.726.726 0 0 0 .726-.726.726.726 0 0 0-.726-.726" style="display:inline;fill:#fff;fill-opacity:1;stroke:none;stroke-width:.151728px;stroke-linecap:butt;stroke-linejoin:miter;stroke-opacity:1" transform="translate(34.592 -22.7)"/></g></svg>