<?xml version="1.0" encoding="UTF-8" standalone="no"?>
<!-- Created with Inkscape (http://www.inkscape.org/) -->

<svg
   width="1017.915"
   height="430.91501"
   viewBox="0 0 269.32335 114.01293"
   version="1.1"
   id="svg5"
   inkscape:version="1.2.2 (b0a8486541, 2022-12-01)"
   sodipodi:docname="NegativeEdge_Minimal.svg"
   inkscape:export-filename="StickCrownv3.png"
   inkscape:export-xdpi="24.139999"
   inkscape:export-ydpi="24.139999"
   xml:space="preserve"
   xmlns:inkscape="http://www.inkscape.org/namespaces/inkscape"
   xmlns:sodipodi="http://sodipodi.sourceforge.net/DTD/sodipodi-0.dtd"
   xmlns="http://www.w3.org/2000/svg"
   xmlns:svg="http://www.w3.org/2000/svg"
   xmlns:rdf="http://www.w3.org/1999/02/22-rdf-syntax-ns#"
   xmlns:cc="http://creativecommons.org/ns#"
   xmlns:dc="http://purl.org/dc/elements/1.1/"><title
     id="title134">Negative Edge Logo</title><sodipodi:namedview
     id="namedview7"
     pagecolor="#505050"
     bordercolor="#eeeeee"
     borderopacity="1"
     inkscape:showpageshadow="0"
     inkscape:pageopacity="0"
     inkscape:pagecheckerboard="0"
     inkscape:deskcolor="#505050"
     inkscape:document-units="mm"
     showgrid="false"
     inkscape:zoom="0.45503631"
     inkscape:cx="412.05503"
     inkscape:cy="635.11415"
     inkscape:window-width="1920"
     inkscape:window-height="1008"
     inkscape:window-x="0"
     inkscape:window-y="0"
     inkscape:window-maximized="1"
     inkscape:current-layer="g630" /><defs
     id="defs2" /><g
     inkscape:label="Negative Edge Logo"
     inkscape:groupmode="layer"
     id="g670"
     style="display:inline"
     transform="translate(34.591888,-22.69983)"><g
       inkscape:groupmode="layer"
       id="g562"
       inkscape:label="Outline"
       transform="translate(-35.396896,21.894813)"
       style="display:inline" /><g
       inkscape:groupmode="layer"
       id="g608"
       inkscape:label="Circle"
       transform="matrix(0.79095666,0,0,0.79095666,-7.0784889,50.21322)"
       style="display:inline" /><g
       id="g630"
       inkscape:label="Text"
       transform="matrix(2.6361754,0,0,2.6361754,-160.49546,-439.0404)"
       style="fill:#ffffff"><path
         id="path614"
         style="font-size:192px;line-height:1.25;font-family:Graduate;-inkscape-font-specification:'Graduate, Normal';display:inline;fill:#ffffff;fill-opacity:1;stroke-width:0.256819"
         inkscape:label="E Outline"
         d="m 90.119784,176.47018 v 0.23867 7.10061 c 1.134644,0 2.269425,-1e-5 3.40407,0 v 26.15987 h -3.40407 v 7.33928 h 26.395976 v -13.13897 h -7.13879 v 5.79969 h -8.13118 v -9.41018 h 11.37944 v -7.33927 h -11.37944 v -9.41042 c 2.71038,0 5.4208,-1e-5 8.13118,0 v 5.80015 h 7.13879 v -13.13943 z m 0.69617,0.71553 h 25.003856 v 11.70837 h -5.74667 v -5.80016 h -9.52329 v 10.84149 h 11.37921 v 5.90797 h -11.37921 v 10.84149 h 9.52329 v -5.7997 h 5.74667 v 11.70791 H 90.815954 v -5.90821 h 3.40384 v -27.59095 h -3.40384 v -5.66954 z" /><path
         id="path616"
         inkscape:label="N Outline"
         d="m 50.632501,176.47018 v 0.23867 7.10061 c 1.134645,0 2.269426,-1e-5 3.404068,0 v 26.15987 h -3.404068 v 7.33928 h 14.530532 v -7.33928 H 61.758512 V 191.4782 c 3.844485,8.61011 7.6894,17.22019 11.533656,25.83041 h 9.377211 v -33.49915 c 1.134643,-1e-5 2.269425,0 3.40407,0 v -7.33928 H 71.54337 v 7.33928 c 1.134642,-1e-5 2.269423,0 3.404068,0 v 18.53281 c -3.84445,-8.62403 -7.689612,-17.24786 -11.533656,-25.87209 z m 0.696168,0.71553 h 11.638513 c 4.224948,9.47819 8.450843,18.95609 12.676198,28.43408 v -22.52587 h -3.403842 v -5.90821 h 13.137743 c 0,1.96934 -3e-6,3.93887 0,5.90821 h -3.403842 v 33.49916 h -8.234672 c -4.22516,-9.46317 -8.450806,-18.9261 -12.676198,-28.38914 -1e-6,7.49369 0,14.98724 0,22.48093 h 3.404522 v 5.90821 H 51.328669 v -5.90821 h 3.403842 v -27.59095 h -3.403842 v -5.66954 z"
         style="font-size:192px;line-height:1.25;font-family:Graduate;-inkscape-font-specification:'Graduate, Normal';display:inline;fill:#ffffff;stroke-width:0.256819" /><path
         d="m 60.134665,211.63903 h 3.40407 v 3.99988 H 52.256673 v -3.99988 h 3.404071 v -29.4991 h -3.404071 v -3.99988 h 10.114952 l 14.199836,31.84903 V 182.13993 H 73.16739 v -3.99988 h 11.282062 v 3.99988 h -3.404071 v 33.49898 H 74.3345 L 60.134665,183.83988 Z"
         id="path620"
         inkscape:label="N"
         style="font-size:192px;line-height:1.25;font-family:Graduate;-inkscape-font-specification:'Graduate, Normal';fill:#ffffff;stroke-width:0.256819" /><path
         d="m 91.743902,178.14005 h 23.147688 v 9.7997 h -3.89037 v -5.79982 H 99.621898 v 12.74961 h 11.379322 v 3.99988 H 99.621898 v 12.74961 h 11.379322 v -5.79983 h 3.89037 v 9.79971 H 91.743902 v -3.99988 h 3.40407 v -29.4991 h -3.40407 z"
         id="path622"
         inkscape:label="E"
         style="font-size:192px;line-height:1.25;font-family:Graduate;-inkscape-font-specification:'Graduate, Normal';fill:#ff7e07;fill-opacity:1;stroke-width:0.256819" /></g><g
       id="g484"
       inkscape:label="Icon"
       transform="matrix(2.2467974,0,0,2.2467974,-36.864572,-107.77957)"><path
         id="path632"
         style="display:inline;fill:#ffffff;fill-opacity:1;stroke:none;stroke-width:0.421994;stroke-linecap:round;stroke-linejoin:round;stroke-dasharray:none;paint-order:stroke fill markers"
         inkscape:label="BallTop"
         d="m 99.997784,68.865073 c -0.120108,8.39e-4 -0.240179,0.0037 -0.360185,0.0083 -0.841301,0.05435 -1.653843,0.173717 -2.457215,0.429431 0.549395,0.731767 1.421037,1.320167 2.373499,1.197343 1.104837,-0.08104 2.115317,-0.711377 2.945557,-1.362708 -0.81907,-0.19146 -1.6609,-0.278199 -2.501656,-0.272334 z m 6.496246,2.208134 -4.2e-4,0.04237 -4.2e-4,0.03617 c -0.003,1.260917 0.15422,2.661351 1.07176,3.610632 0.57113,0.546751 1.39268,0.714265 2.15905,0.718819 -0.64558,-1.727889 -1.78515,-3.263666 -3.22927,-4.407999 z m -14.541233,3.227709 c -0.194603,8.02e-4 -0.388787,0.0047 -0.583424,0.01085 -0.132667,0.01316 -0.393898,-0.06412 -0.383441,0.157096 -1.465798,2.813564 -1.504959,6.269149 -0.114723,9.125025 1.283496,2.714764 3.836976,4.790617 6.734474,5.504057 3.216367,0.841067 6.809757,-0.02645 9.292967,-2.235523 1.03977,-0.913434 1.89542,-2.037907 2.49081,-3.287654 -2.40695,-3.094061 -5.38241,-5.820582 -8.96638,-7.471897 -2.644477,-1.228917 -5.551229,-1.814165 -8.470283,-1.801958 z m 0.04444,1.644344 c -0.02418,1.582933 0.312567,3.172053 1.012339,4.609539 1.283492,2.714761 3.836972,4.791134 6.734474,5.504573 2.01575,0.527112 4.1799,0.382679 6.12572,-0.342098 -0.23469,0.203841 -0.47876,0.395764 -0.72967,0.573608 -0.71528,0.502874 -1.61759,0.959104 -2.50631,1.215947 -0.30037,0.09469 -0.72342,0.189354 -1.08004,0.246496 -2.814582,0.515168 -5.816529,-0.538225 -7.773161,-2.606559 -2.313711,-2.377105 -3.01553,-6.132422 -1.783352,-9.201506 z m 5.427574,14.481287 v 8.156092 c 0.157176,0.353638 0.619471,0.390884 0.939478,0.527099 1.365806,0.374798 2.882771,0.337875 4.186301,-0.242362 0.21237,-0.09096 0.34923,-0.287513 0.28732,-0.521416 -0.0121,-2.639861 -0.006,-5.279535 -0.007,-7.919413 -1.27092,0.310115 -2.59531,0.395757 -3.896396,0.259932 v 7.28276 h -0.953948 v -7.422803 c -0.186327,-0.0356 -0.37173,-0.07492 -0.556037,-0.119889 z m 6.746869,2.071708 v 6.12159 c 0.0445,0.823766 -0.73177,1.367522 -1.4211,1.623155 -1.6459,0.60335 -3.50485,0.58992 -5.159887,0.0295 -0.659333,-0.23662 -1.404921,-0.695588 -1.486733,-1.456245 -0.05418,-0.834711 0.003,-1.673096 -0.01962,-2.509407 v -3.804419 c -2.828987,0.328699 -5.62711,0.938663 -8.191747,2.232939 -1.313074,0.694521 -2.656439,1.604889 -3.256135,3.021521 -0.356788,0.890807 -0.147056,1.92686 0.430468,2.675801 0.920319,1.28741 2.369731,2.06604 3.79925,2.70785 2.853353,1.21498 5.977201,1.72261 9.040792,1.93218 2.795992,0.16878 5.607832,0.0252 8.339542,-0.45423 2.53047,-0.4593 5.09992,-1.18842 7.27915,-2.61587 1.036,-0.71806 2.08969,-1.68275 2.26032,-3.001363 0.13621,-1.198504 -0.63762,-2.282918 -1.51618,-3.015836 -1.64767,-1.362867 -3.69463,-2.13632 -5.73867,-2.684591 -1.43042,-0.375351 -2.88949,-0.640599 -4.35942,-0.802535 z m -19.266001,9.411825 c 0.0013,0.0442 0.003,0.0881 0.0042,0.1323 0.0013,0.61314 0.231371,1.2034 0.63614,1.66294 1.07625,1.35564 2.70785,2.09722 4.279842,2.71767 3.114433,1.15506 6.451628,1.56914 9.740488,1.64744 3.445021,0.0462 6.922021,-0.34423 10.217981,-1.40766 1.57914,-0.55 3.15983,-1.24334 4.41161,-2.37764 0.66821,-0.60284 1.20439,-1.44249 1.16531,-2.37298 -1.02391,1.24979 -2.49632,2.01912 -3.94963,2.65979 -2.87966,1.19817 -5.99991,1.69869 -9.09661,1.90169 -3.750893,0.21249 -7.55273,-0.0971 -11.178118,-1.10691 -1.798953,-0.52339 -3.584053,-1.23859 -5.086514,-2.35386 -0.420732,-0.32386 -0.80944,-0.69049 -1.14463,-1.10278 z m 2.014348,1.21285 c -0.02047,5e-5 -0.05565,0.008 -0.110073,0.0284 l -0.03929,0.007 c -0.284032,0.37005 0.29248,-0.036 0.149348,-0.0357 z" /><path
         id="path638"
         style="display:inline;fill:#ff7e07;fill-opacity:1;stroke:none;stroke-width:0.151728px;stroke-linecap:butt;stroke-linejoin:miter;stroke-opacity:1"
         inkscape:label="Crown"
         d="m 93.734601,59.874924 a 1.9203722,1.9203722 0 0 0 -1.920813,1.920296 1.9203722,1.9203722 0 0 0 1.920813,1.920813 1.9203722,1.9203722 0 0 0 1.920299,-1.920813 1.9203722,1.9203722 0 0 0 -1.920299,-1.920296 z m 13.001269,2.504756 a 2.3974831,2.3974831 0 0 0 -2.39778,2.397787 2.3974831,2.3974831 0 0 0 2.39778,2.39727 2.3974831,2.3974831 0 0 0 2.39727,-2.39727 2.3974831,2.3974831 0 0 0 -2.39727,-2.397787 z m -13.263268,2.87321 c -0.03359,0.01018 -0.0647,0.09938 -0.09198,0.285254 l -0.827342,3.105237 -1.148251,4.319633 c 4.779121,-0.109544 9.588801,1.429123 13.376441,4.355806 1.8544,1.395467 3.50241,3.053195 4.95784,4.857068 1.77424,-2.122608 3.54843,-4.244962 5.32267,-6.36757 -2.15994,0.655942 -4.43441,1.215283 -6.7045,0.910539 -1.41134,-0.25949 -2.6289,-1.346166 -3.02462,-2.729549 -0.66439,-1.833674 -0.4195,-3.875534 -0.14883,-5.725232 -1.35933,1.456714 -2.94151,2.820245 -4.87205,3.430798 -1.345059,0.364842 -2.927441,0.07638 -3.88555,-0.988053 -1.417429,-1.399778 -2.132617,-3.312148 -2.811715,-5.141805 -0.05115,-0.208204 -0.09892,-0.325219 -0.142111,-0.312126 z m 24.021788,6.59753 a 1.9203722,1.9203722 0 0 0 -1.92029,1.920296 1.9203722,1.9203722 0 0 0 1.92029,1.920813 1.9203722,1.9203722 0 0 0 1.9203,-1.920813 1.9203722,1.9203722 0 0 0 -1.9203,-1.920296 z" /><path
         id="path646"
         style="display:inline;fill:#ffffff;fill-opacity:1;stroke:none;stroke-width:0.151728px;stroke-linecap:butt;stroke-linejoin:miter;stroke-opacity:1"
         inkscape:label="Crown Highlight"
         d="m 93.204918,60.517778 a 0.72618926,0.72618926 0 0 0 -0.726054,0.726054 0.72618926,0.72618926 0 0 0 0.726054,0.726054 0.72618926,0.72618926 0 0 0 0.726054,-0.726054 0.72618926,0.72618926 0 0 0 -0.726054,-0.726054 z m 13.091192,2.427243 a 0.72618926,0.72618926 0 0 0 -0.72605,0.726053 0.72618926,0.72618926 0 0 0 0.72605,0.726054 0.72618926,0.72618926 0 0 0 0.72657,-0.726054 0.72618926,0.72618926 0 0 0 -0.72657,-0.726053 z m -11.828737,4.764567 -0.752407,5.333007 c 1.871393,0.163259 3.720991,0.57176 5.485451,1.21543 l 0.342617,-2.428792 c -1.142769,0.09595 -2.336541,-0.255779 -3.116606,-1.122412 -0.864101,-0.853338 -1.466017,-1.897842 -1.959055,-2.997233 z m 8.953977,2.22467 c -0.74108,0.605537 -1.54244,1.132295 -2.42052,1.504818 l -0.47336,3.356901 c 0.70471,0.312263 1.39377,0.659897 2.05982,1.047998 z m 13.85755,2.282031 a 0.72618926,0.72618926 0 0 0 -0.72657,0.726054 0.72618926,0.72618926 0 0 0 0.72657,0.726054 0.72618926,0.72618926 0 0 0 0.72605,-0.726054 0.72618926,0.72618926 0 0 0 -0.72605,-0.726054 z" /></g></g><metadata
     id="metadata132"><rdf:RDF><cc:Work
         rdf:about=""><dc:title>Negative Edge Logo</dc:title><dc:date>2023</dc:date><dc:description>Logo for Negative Edge, Gothenburg Fighting Game Community</dc:description></cc:Work></rdf:RDF></metadata></svg>
